<?xml version="1.0" standalone="no"?>
<!DOCTYPE svg PUBLIC "-//W3C//DTD SVG 20010904//EN"
 "http://www.w3.org/TR/2001/REC-SVG-20010904/DTD/svg10.dtd">
<svg version="1.0" xmlns="http://www.w3.org/2000/svg"
 width="1012.000000pt" height="1012.000000pt" viewBox="0 0 1012.000000 1012.000000"
 preserveAspectRatio="xMidYMid meet">
<metadata>
Created by potrace 1.11, written by Peter Selinger 2001-2013
</metadata>
<g transform="translate(0.000000,1012.000000) scale(0.100000,-0.100000)"
fill="#000000" stroke="none">
<path d="M4895 8229 c-1198 -99 -2281 -488 -3140 -1128 -792 -590 -1288 -1344
-1411 -2141 -37 -242 -33 -601 10 -852 131 -755 573 -1244 1266 -1398 299 -67
702 -70 1045 -9 148 26 120 37 263 -102 214 -209 407 -350 642 -473 346 -179
657 -255 1045 -256 325 0 584 50 893 172 l102 41 88 -41 c170 -79 300 -106
497 -106 165 0 259 18 396 74 153 64 354 208 465 334 l50 57 102 -30 c113 -33
378 -94 487 -111 270 -43 624 -54 818 -25 432 65 745 236 963 524 230 306 325
699 324 1353 0 582 -90 1064 -297 1588 -202 510 -485 943 -867 1326 -543 541
-1223 903 -2053 1089 -65 15 -142 31 -170 36 -29 5 -79 13 -110 19 -98 17
-371 49 -512 60 -156 12 -749 11 -896 -1z m780 -469 c775 -47 1425 -235 1998
-578 812 -487 1382 -1316 1581 -2303 54 -265 70 -439 70 -759 1 -572 -61 -854
-237 -1085 -90 -118 -238 -221 -393 -273 -155 -53 -255 -66 -494 -65 -194 0
-247 3 -388 26 -275 45 -525 112 -770 207 l-123 48 -13 -21 c-8 -12 -37 -60
-66 -107 -106 -174 -238 -304 -379 -374 -86 -43 -121 -54 -209 -65 -169 -21
-331 31 -579 188 l-52 33 -78 -45 c-289 -169 -666 -260 -1012 -243 -463 22
-887 219 -1270 590 -57 56 -142 146 -189 201 -47 55 -91 106 -98 114 -10 11
-26 9 -100 -13 -117 -34 -247 -62 -386 -83 -161 -24 -526 -24 -665 0 -286 49
-496 149 -665 318 -228 228 -346 553 -364 1009 -37 894 497 1763 1478 2404
957 624 2211 947 3403 876z"/>
<path d="M5369 6935 c-73 -40 -46 -149 36 -149 86 0 112 109 36 149 -36 18
-39 18 -72 0z"/>
<path d="M7054 6881 c-55 -34 -67 -114 -25 -169 17 -23 17 -25 -2 -63 -56
-114 -13 -249 101 -316 39 -24 58 -28 117 -28 102 1 173 44 221 135 27 51 25
162 -3 215 -38 71 -103 118 -182 131 -35 6 -42 11 -52 41 -13 42 -60 73 -109
73 -19 0 -49 -9 -66 -19z"/>
<path d="M4695 6799 c-87 -51 -124 -131 -101 -220 30 -116 154 -171 264 -118
120 59 135 232 27 315 -31 24 -49 29 -104 32 -38 1 -75 -2 -86 -9z"/>
<path d="M4525 6086 c-89 -42 -125 -97 -125 -189 0 -61 25 -121 66 -159 36
-34 60 -42 154 -57 101 -17 167 -38 216 -72 45 -31 110 -111 144 -179 23 -44
23 -44 33 -20 6 14 11 90 11 170 1 160 -11 218 -65 321 -93 174 -284 256 -434
185z"/>
<path d="M5374 5761 c-45 -11 -97 -46 -135 -88 -38 -44 -87 -146 -96 -198 l-6
-37 47 36 c70 53 114 62 211 41 92 -19 114 -14 160 35 94 98 -35 248 -181 211z"/>
<path d="M1775 5671 c-96 -24 -200 -116 -253 -224 -37 -76 -72 -210 -72 -275
l0 -44 51 56 c32 36 73 67 114 87 62 30 68 31 209 33 l145 1 35 34 c19 19 42
49 51 67 21 45 19 122 -4 160 -51 84 -172 130 -276 105z"/>
<path d="M4741 5208 c-46 -22 -101 -88 -101 -120 0 -10 -6 -20 -12 -22 -7 -3
-70 -20 -139 -39 -175 -49 -344 -125 -602 -271 -352 -198 -515 -268 -748 -319
-190 -42 -288 -51 -549 -51 -271 0 -396 13 -595 64 -218 55 -351 113 -698 308
-148 82 -191 102 -197 91 -17 -26 -25 -147 -24 -359 0 -179 4 -233 22 -326 27
-137 58 -230 113 -336 59 -112 192 -248 298 -302 l74 -39 -9 29 c-15 48 -10
166 9 200 43 82 127 133 218 134 66 0 115 -18 164 -62 57 -49 79 -101 80 -184
0 -63 -4 -77 -32 -122 l-32 -52 32 0 c133 0 337 43 662 140 148 44 273 79 276
78 4 -2 89 -100 189 -218 261 -307 301 -350 409 -444 103 -89 218 -176 232
-176 5 0 9 11 9 24 0 12 10 38 23 57 48 72 156 71 205 -1 33 -48 27 -118 -13
-160 -16 -17 -27 -32 -24 -34 2 -3 39 -19 81 -35 251 -101 552 -118 833 -46
153 39 267 90 480 215 112 66 209 120 214 120 5 0 87 -50 182 -110 274 -175
383 -202 527 -132 91 44 162 131 311 385 73 125 135 227 137 227 2 0 113 -42
246 -94 323 -125 470 -170 698 -215 200 -39 275 -46 475 -46 214 0 292 10 404
52 87 32 94 39 75 68 -20 31 -20 104 0 143 32 62 108 91 176 68 l42 -14 19 44
c73 163 113 596 90 950 -11 162 -43 419 -53 430 -3 2 -74 -31 -159 -75 -241
-124 -434 -188 -689 -227 -145 -22 -566 -26 -710 -6 -344 48 -558 130 -1005
383 -343 194 -573 275 -878 310 -100 12 -109 15 -122 38 -30 58 -103 101 -172
101 -52 -1 -115 -31 -148 -73 l-28 -34 -31 35 c-61 70 -155 90 -235 50z m1844
-1142 c60 -46 71 -140 24 -200 -85 -108 -259 -47 -259 90 0 118 139 183 235
110z m-359 -221 c189 -56 242 -311 91 -440 -104 -89 -261 -82 -353 17 -54 57
-69 95 -69 178 0 90 22 139 87 194 70 61 154 78 244 51z m-1992 -487 c57 -17
131 -93 146 -149 26 -95 -14 -205 -92 -257 -37 -24 -51 -27 -123 -27 -72 0
-86 3 -123 28 -65 43 -96 97 -100 177 -4 67 11 114 50 160 61 70 150 95 242
68z"/>
<path d="M8165 5136 c-40 -17 -82 -67 -96 -115 -23 -78 14 -160 91 -199 150
-77 311 92 228 240 -43 75 -143 109 -223 74z"/>
</g>
</svg>
