<?xml version="1.0" encoding="UTF-8" standalone="no"?>
<svg
   xmlns:dc="http://purl.org/dc/elements/1.1/"
   xmlns:cc="http://creativecommons.org/ns#"
   xmlns:rdf="http://www.w3.org/1999/02/22-rdf-syntax-ns#"
   xmlns:svg="http://www.w3.org/2000/svg"
   xmlns="http://www.w3.org/2000/svg"
   xmlns:sodipodi="http://sodipodi.sourceforge.net/DTD/sodipodi-0.dtd"
   xmlns:inkscape="http://www.inkscape.org/namespaces/inkscape"
   id="Layer_1"
   data-name="Layer 1"
   viewBox="0 0 252.71587 174.97011"
   version="1.1"
   sodipodi:docname="logo.svg"
   inkscape:version="1.0.1 (c497b03c, 2020-09-10)"
   width="252.71587"
   height="174.97011">
  <metadata
     id="metadata142">
    <rdf:RDF>
      <cc:Work
         rdf:about="">
        <dc:format>image/svg+xml</dc:format>
        <dc:type
           rdf:resource="http://purl.org/dc/dcmitype/StillImage" />
        <dc:title>BRAINIUM_Logo</dc:title>
      </cc:Work>
    </rdf:RDF>
  </metadata>
  <sodipodi:namedview
     pagecolor="#ffffff"
     bordercolor="#666666"
     borderopacity="1"
     objecttolerance="10"
     gridtolerance="10"
     guidetolerance="10"
     inkscape:pageopacity="0"
     inkscape:pageshadow="2"
     inkscape:window-width="1002"
     inkscape:window-height="856"
     id="namedview140"
     showgrid="false"
     inkscape:zoom="1.2926796"
     inkscape:cx="118.70352"
     inkscape:cy="138.18943"
     inkscape:window-x="746"
     inkscape:window-y="102"
     inkscape:window-maximized="0"
     inkscape:current-layer="Layer_1" />
  <defs
     id="defs97">
    <style
       id="style95">.cls-1{fill:#003a63;}.cls-2{fill:#fff;}.cls-3{fill:#39b7d8;}</style>
  </defs>
  <title
     id="title99">BRAINIUM_Logo</title>
  <path
     class="cls-2"
     d="m 115.20098,166.97001 c -11.7656,0 -28.930003,-3.8136 -45.253203,-21.4932 a 80.2329,80.2329 0 0 1 -16.5024,1.7892 c -27.9021,0.002 -44.4555997,-16.58 -45.4093997,-45.4947 -0.6337,-19.158797 7.1812997,-37.713597 22.6008997,-53.652497 23.9434,-24.7465 63.4124,-40.1188002 103.013903,-40.1188002 a 149.9593,149.9593 0 0 1 19.9969,1.3305 c 29.997,4.0512002 54.4044,17.5027002 70.5837,38.8993002 16.3372,21.605 23.4023,50.1563 19.3811,78.336697 -2.9115,20.4127 -16.6263,31.6576 -38.618,31.66 -11.142,0 -21.8461,-2.8528 -27.5725,-4.6848 -3.8772,4.6848 -11.6239,11.8126 -22.8858,11.8126 a 30.6794,30.6794 0 0 1 -14.4575,-3.8755 60.2738,60.2738 0 0 1 -24.8777,5.4912 z"
     id="path117" />
  <path
     class="cls-2"
     d="M 133.65078,1.2795254e-5 C 91.960777,1.2795254e-5 50.284977,16.306413 24.887577,42.555913 7.9251773,60.089613 -0.66672268,80.657213 0.04037732,102.03591 c 0.536,16.2486 5.69889998,29.7267 14.93059968,38.9765 9.3064,9.3249 22.6087,14.2537 38.4686,14.2537 a 86.8319,86.8319 0 0 0 13.7578,-1.1349 c 17.4319,17.1228 35.560003,20.8389 48.003603,20.8389 a 68.59,68.59 0 0 0 24.6917,-4.72 37.2776,37.2776 0 0 0 14.6436,3.1045 c 11.5008,0 20.0185,-5.6563 25.3552,-10.7485 a 99.1026,99.1026 0 0 0 25.1029,3.6207 c 12.843,-0.002 23.453,-3.3628 31.5363,-9.99 8.2137,-6.734 13.2609,-16.3365 15.0016,-28.5409 4.32,-30.273697 -3.3051,-60.996997 -20.92,-84.291497 -17.4937,-23.1344 -43.7375,-37.6590002 -75.8939,-42.0018002 A 157.9681,157.9681 0 0 0 133.65078,1.2795254e-5 Z"
     id="path119" />
  <path
     class="cls-1"
     d="m 115.20098,166.97001 c -11.7656,0 -28.930003,-3.8136 -45.253203,-21.4932 a 80.2329,80.2329 0 0 1 -16.5024,1.7892 c -27.9021,0.002 -44.4555997,-16.58 -45.4093997,-45.4947 -0.6337,-19.158797 7.1812997,-37.713597 22.6008997,-53.652497 23.9434,-24.7465 63.4124,-40.1188002 103.013903,-40.1188002 a 149.9593,149.9593 0 0 1 19.9969,1.3305 c 29.997,4.0512002 54.4044,17.5027002 70.5837,38.8993002 16.3372,21.605 23.4023,50.1563 19.3811,78.336697 -2.9115,20.4127 -16.6263,31.6576 -38.618,31.66 -11.142,0 -21.8461,-2.8528 -27.5725,-4.6848 -3.8772,4.6848 -11.6239,11.8126 -22.8858,11.8126 a 30.6794,30.6794 0 0 1 -14.4575,-3.8755 60.2738,60.2738 0 0 1 -24.8777,5.4912 z m -41.274903,-34.5752 2.447,2.8736 c 11.3637,13.3527 24.426803,20.1216 38.827903,20.1216 a 47.6161,47.6161 0 0 0 22.0888,-5.4768 l 3.0715,-1.8209 3.023,1.9111 c 3.9093,2.5048 7.6613,3.772 11.1519,3.772 9.6755,-0.003 15.6733,-9.94 15.7316,-10.039 l 2.52,-4.2524 4.6117,1.7932 c 0.13,0.0532 13.7892,5.37 27.5944,5.3675 16.19,0 25.0706,-7.1029 27.1558,-21.7134 3.5864,-25.145497 -2.6647,-50.554897 -17.1567,-69.717497 -14.2751,-18.8791 -36.0242,-30.776 -62.8968,-34.4084 a 138.5419,138.5419 0 0 0 -18.4454,-1.2254 c -36.570703,0 -72.855103,14.02 -94.690003,36.59 -13.1877,13.6312 -19.88,29.2678 -19.35,45.221697 0.7513,22.7569 12.1342,34.2943 33.834,34.2943 a 66.2524,66.2524 0 0 0 16.8633,-2.2123 z"
     id="path121" />
  <path
     class="cls-3"
     d="m 205.68828,93.738313 a 4.2928,4.2928 0 1 0 -4.293,-4.2939 4.2926,4.2926 0 0 0 4.293,4.2939 z"
     id="path123" />
  <path
     class="cls-3"
     d="m 180.94068,56.313313 a 6.0128,6.0128 0 0 0 0,-12.0256 c -0.097,0 -0.1876,0.025 -0.2853,0.0292 l 0.002,-0.0349 a 2.8612,2.8612 0 1 0 -4.4647,2.372 5.949,5.949 0 0 0 -1.2614,3.6478 6.014,6.014 0 0 0 6.0098,6.0115 z"
     id="path125" />
  <path
     class="cls-3"
     d="m 119.02108,72.583213 c 3.9425,1.3891 5.9451,6.6268 5.9451,6.6268 0,0 2.52,-9.667 -3.1086,-15.4505 -5.62,-5.7812 -15.0085,-1.0455 -11.0862,5.6942 1.6014,2.7439 4.8712,1.9406 8.2497,3.1295 z"
     id="path127" />
  <path
     class="cls-3"
     d="m 132.96348,75.597813 c 2.0679,0.1009 3.65,1.2524 5.1107,0.132 3.5839,-2.7574 -0.4125,-7.3575 -4.7013,-5.492 -4.2871,1.8705 -5.0533,7.61 -5.0533,7.61 0,0 2.2229,-2.3706 4.6439,-2.25 z"
     id="path129" />
  <path
     class="cls-3"
     d="m 42.603277,81.199113 c 3.0822,-0.3124 5.6717,1.0319 7.5777,-0.9555 4.67,-4.872 -2.2617,-10.7634 -8.1676,-7.0411 -5.91,3.7193 -5.7545,12.3669 -5.7545,12.3669 0,0 2.7471,-4.0043 6.3444,-4.3703 z"
     id="path131" />
  <path
     class="cls-3"
     d="m 119.18368,52.862913 a 4.602,4.602 0 1 0 -4.604,-4.6021 4.6013,4.6013 0 0 0 4.604,4.6021 z"
     id="path133" />
  <path
     class="cls-3"
     d="m 134.99478,44.264213 a 1.94,1.94 0 1 0 -1.9406,-1.9406 1.9419,1.9419 0 0 0 1.9406,1.9406 z"
     id="path135" />
  <path
     class="cls-3"
     d="m 222.80338,97.010013 c -0.0537,-0.3109 -0.095,-0.6254 -0.1518,-0.9359 -7.5376,4.285297 -15.4694,8.348197 -30.4952,8.348197 -12.0471,0 -19.5364,-2.61 -25.9177,-5.854897 -3.766,-1.9147 -7.152,-4.0489 -10.8537,-5.9994 a 51.1061,51.1061 0 0 0 -20.6,-6.1112 c -0.2532,-0.02 -0.4934,-0.0518 -0.75,-0.0705 a 4.8916,4.8916 0 0 0 -1.8516,-2.3533 4.7864,4.7864 0 0 0 -2.6914,-0.8339 4.8536,4.8536 0 0 0 -4.1615,2.3637 4.9577,4.9577 0 0 0 -0.3,0.5761 4.8894,4.8894 0 0 0 -1.73,-2.0937 4.8333,4.8333 0 0 0 -7.5166,3.3039 c -19.925903,4.02 -24.077403,17.073197 -51.025603,17.073197 -12.0086,0 -19.4891,-2.5928 -25.858,-5.820797 -3.9435,-1.9984 -7.4648,-4.24 -11.3614,-6.2659 a 44.8867,44.8867 0 0 0 -0.7924,9.948897 c 0.4256,12.8682 4.4923,20.708 12.83,24.2443 a 6.06,6.06 0 0 1 -0.7572,-2.8991 6.2314,6.2314 0 1 1 10.6382,4.4049 c 0.4871,-0.0271 0.9629,-0.0624 1.43,-0.1029 a 58.3676,58.3676 0 0 0 9.5662,-1.5759 l 13.2755,-3.9581 0.5233,0.6163 1.1738,1.3794 7.2779,8.5544 a 55.1635,55.1635 0 0 0 11.78,10.6176 c -0.006,-0.0646 -0.015,-0.1295 -0.02,-0.1942 -0.001,-0.019 -0.005,-0.0364 -0.005,-0.0544 a 3.2069,3.2069 0 0 1 0.0743,-0.6826 3.3013,3.3013 0 0 1 6.527803,0.6826 3.2468,3.2468 0 0 1 -0.9222,2.2384 3.3749,3.3749 0 0 1 -0.892703,0.692 c 0.3359,0.1573 0.6722,0.2971 1.008903,0.4417 a 32.58,32.58 0 0 0 13.082,2.7764 37.7449,37.7449 0 0 0 16.32,-3.8586 l 1.7946,-1.0869 c 0.5018,-0.2456 0.7722,-0.3965 0.7777,-0.3993 l 7.3277,-4.3427 0.7283,0.4607 6.5153,4.12 a 13.7215,13.7215 0 0 0 6.57,2.472 c 0.0257,0 -5.091,-0.336 0.0815,0.007 5.6154,0.3724 8.9194,-6.0566 8.9194,-6.0566 l 6.0165,-10.154 0.3392,0.1323 10.6858,4.1577 c 0.117,0.0433 11.3741,4.3644 22.94,4.7674 0.5656,0.0191 1.1333,0.0393 1.7,0.0393 0.422,0 0.8291,-0.01 1.2406,-0.02 4.2667,-0.0931 7.9477,-0.7192 10.8751,-2.4071 a 3.7914,3.7914 0 0 1 -0.881,-2.4154 3.83,3.83 0 0 1 5.97,-3.1771 22.6091,22.6091 0 0 0 1.95,-6.7525 90.07,90.07 0 0 0 -0.4043,-27.941297 z m -118.8309,43.972897 a 5.7641,5.7641 0 1 1 5.764,-5.7607 5.7669,5.7669 0 0 1 -5.764,5.7607 z m 49.571,-10.6062 a 6.5587,6.5587 0 1 1 6.5552,-6.5612 6.5577,6.5577 0 0 1 -6.5552,6.5612 z m 8.6333,-11.6567 a 3.7388,3.7388 0 1 1 3.7329,-3.7449 3.74,3.74 0 0 1 -3.7329,3.7449 z"
     id="path137" />
</svg>
